<svg width="250" height="250" viewBox="0 0 250 250" fill="none" xmlns="http://www.w3.org/2000/svg">
<circle cx="125" cy="125" r="125" fill="white"/>
<path d="M124.919 193.66C108.579 193.66 95.5958 189.1 85.9691 179.98C76.3424 170.733 71.5291 157.433 71.5291 140.08V108.92C71.5291 91.5667 76.3424 78.33 85.9691 69.21C95.5958 59.9633 108.579 55.34 124.919 55.34C141.259 55.34 154.242 59.9633 163.869 69.21C173.622 78.33 178.499 91.5667 178.499 108.92V140.08C178.499 157.433 173.622 170.733 163.869 179.98C154.242 189.1 141.259 193.66 124.919 193.66ZM124.919 175.23C135.432 175.23 143.539 172.19 149.239 166.11C154.939 159.903 157.789 151.48 157.789 140.84V108.16C157.789 97.52 154.939 89.16 149.239 83.08C143.539 76.8733 135.432 73.77 124.919 73.77C114.659 73.77 106.616 76.8733 100.789 83.08C94.9624 89.16 92.0491 97.52 92.0491 108.16V140.84C92.0491 151.48 94.9624 159.903 100.789 166.11C106.616 172.19 114.659 175.23 124.919 175.23Z" fill="black"/>
</svg>
